<?xml version="1.0" encoding="utf-8"?>
<svg version="1.0" xmlns="http://www.w3.org/2000/svg" width="512.000000pt" height="512.000000pt" preserveAspectRatio="xMidYMid meet">
  <g transform="translate(0.000000,512.000000) scale(0.100000,-0.100000)" fill="#000000" stroke="none">
    <path d="M2144 4871 c-113 -29 -209 -127 -232 -238 l-8 -38 -76 -1 c-130 -2 -231 -64 -288 -176 -26 -53 -30 -72 -30 -139 0 -78 0 -79 -27 -84 -56 -11 -153 -67 -183 -105 -54 -68 -74 -126 -74 -212 0 -66 -2 -78 -16 -78 -47 0 -117 -37 -171 -89 -74 -73 -103 -146 -96 -241 6 -91 35 -150 117 -234 38 -40 70 -80 70 -89 0 -28 -45 -130 -81 -185 -29 -45 -35 -49 -56 -41 -47 17 -126 10 -179 -16 -63 -31 -197 -167 -224 -226 -22 -48 -26 -131 -10 -175 11 -27 3 -35 -245 -284 l-255 -256 0 -837 0 -838 25 -24 24 -25 243 0 243 0 551 551 552 552 48 -12 c97 -25 185 12 292 123 104 107 132 180 110 286 -8 34 -7 36 50 71 76 48 155 76 262 95 83 14 94 14 186 -5 62 -13 127 -35 178 -60 119 -58 118 -57 104 -122 -18 -88 5 -149 93 -244 125 -133 201 -169 306 -145 l56 12 551 -551 551 -551 243 0 243 0 24 25 25 24 0 838 0 837 -255 256 c-248 249 -256 257 -245 284 18 49 12 128 -15 182 -31 63 -167 197 -226 224 -47 21 -131 26 -172 11 -21 -8 -27 -4 -56 41 -36 55 -81 157 -81 185 0 9 33 51 73 92 114 118 144 228 96 358 -37 100 -163 203 -248 203 -13 0 -16 14 -17 78 0 86 -21 145 -74 212 -30 37 -127 94 -181 105 -26 5 -27 7 -26 79 0 65 -4 84 -32 140 -57 116 -159 179 -291 180 l-74 1 -8 38 c-18 88 -75 162 -160 208 -58 31 -70 34 -148 34 -109 -1 -157 -23 -262 -124 l-78 -74 -78 74 c-42 41 -100 85 -127 98 -54 26 -156 36 -211 22z m139 -165 c18 -8 121 -103 229 -212 211 -214 219 -226 204 -310 -10 -50 -72 -110 -125 -119 -81 -14 -93 -6 -303 203 -109 107 -205 211 -214 230 -22 48 -14 112 21 158 46 60 120 79 188 50z m657 4 c47 -13 99 -68 110 -116 16 -68 -3 -109 -93 -201 -44 -46 -83 -83 -86 -83 -3 0 -14 20 -25 45 -10 26 -51 80 -94 126 l-75 80 59 61 c55 56 120 97 154 98 8 0 31 -5 50 -10z m-1070 -280 c27 -7 108 -83 352 -327 341 -342 340 -341 324 -428 -9 -46 -62 -100 -114 -115 -86 -26 -95 -21 -430 313 -167 166 -308 311 -314 322 -35 64 -25 140 25 193 44 46 94 60 157 42z m1469 0 c40 -11 89 -54 103 -90 13 -34 12 -103 -2 -132 -7 -12 -124 -136 -261 -273 -262 -264 -268 -273 -233 -323 22 -32 58 -44 92 -31 15 6 124 106 242 223 118 118 225 219 237 225 82 42 200 -23 218 -121 14 -75 -3 -98 -238 -335 -207 -208 -221 -225 -221 -259 0 -44 31 -74 77 -74 26 0 58 27 227 194 165 164 203 196 239 206 129 35 238 -89 190 -217 -11 -31 -1109 -1136 -1205 -1214 -91 -72 -192 -117 -320 -140 -179 -32 -278 -69 -388 -144 l-39 -27 -458 458 -457 457 37 56 c20 31 47 80 60 109 24 52 25 52 45 33 53 -48 107 -66 201 -66 78 0 97 4 140 27 28 14 67 44 87 65 39 40 88 134 88 169 0 19 6 20 78 20 62 0 88 5 133 26 70 32 125 86 156 154 l24 52 61 -31 c54 -28 70 -32 142 -31 92 0 145 20 214 80 106 90 133 279 57 396 l-24 37 56 26 c47 21 99 68 288 256 255 253 270 263 354 239z m-1736 -401 c31 -16 405 -389 423 -421 61 -115 -61 -256 -189 -219 -34 11 -76 47 -234 204 -206 205 -232 241 -219 310 19 101 136 168 219 126z m-234 -428 c63 -50 251 -248 261 -276 5 -14 10 -47 10 -72 0 -116 -123 -188 -228 -134 -45 24 -274 254 -296 298 -45 90 10 202 108 223 45 9 104 -7 145 -39z m2588 -757 l22 -30 -458 -458 -458 -458 -45 31 c-24 17 -77 46 -117 65 l-71 34 47 35 c27 20 257 245 513 501 l464 465 41 -77 c22 -42 50 -91 62 -108z m-2473 -603 c624 -623 579 -555 449 -682 -62 -61 -87 -79 -109 -79 -24 0 -106 77 -561 532 -624 624 -579 556 -456 680 124 124 56 169 677 -451z m2828 452 c125 -124 170 -56 -455 -681 -455 -455 -537 -532 -561 -532 -22 0 -47 18 -109 79 -130 127 -175 59 449 682 620 620 553 575 676 452z m-3167 -793 l450 -450 -525 -525 -525 -525 -152 0 -153 0 0 752 0 753 222 222 c123 123 225 223 228 223 3 0 208 -203 455 -450z m3512 228 l223 -223 0 -752 0 -753 -153 0 -152 0 -525 525 -525 525 450 450 c247 247 452 450 455 450 3 0 105 -100 227 -222z" style="fill: rgb(30, 58, 138);"/>
  </g>
</svg>