<?xml version="1.0" encoding="utf-8"?>
<svg version="1.0" xmlns="http://www.w3.org/2000/svg" width="512.000000pt" height="512.000000pt" preserveAspectRatio="xMidYMid meet">
  <g transform="translate(0.000000,512.000000) scale(0.100000,-0.100000)" fill="#000000" stroke="none">
    <path d="M2537 4739 c-25 -14 -457 -665 -457 -688 0 -38 31 -51 123 -51 l87 0 0 -403 c0 -348 2 -406 16 -425 15 -22 18 -22 254 -22 236 0 239 0 254 22 14 19 16 77 16 425 l0 403 88 0 c73 0 92 3 105 18 10 10 17 26 17 35 0 24 -435 674 -459 687 -23 12 -21 12 -44 -1z m186 -384 c87 -129 157 -237 157 -240 0 -3 -26 -5 -58 -5 -36 0 -66 -6 -80 -16 l-22 -15 0 -415 0 -414 -160 0 -160 0 0 414 0 415 -22 15 c-14 10 -44 16 -80 16 -32 0 -58 2 -58 5 0 10 313 475 320 475 4 0 77 -106 163 -235z" style="fill: rgb(30, 58, 138);"/>
    <path d="M1367 4421 c-24 -9 -457 -660 -457 -688 0 -42 24 -53 121 -53 l89 0 0 -249 c0 -214 2 -252 16 -265 13 -14 50 -16 253 -16 171 0 240 3 249 12 9 9 12 82 12 265 l0 253 90 0 c78 0 93 3 111 21 11 11 19 28 16 38 -9 35 -446 678 -464 683 -10 3 -26 2 -36 -1z m185 -389 l158 -237 -64 -3 c-98 -4 -95 5 -98 -288 l-3 -249 -157 -3 -158 -3 0 251 c0 298 3 290 -105 290 l-65 0 160 240 c88 132 164 240 168 240 4 0 78 -107 164 -238z" style="fill: rgb(30, 58, 138);"/>
    <path d="M3717 4422 c-18 -4 -448 -637 -461 -679 -5 -15 -1 -28 13 -42 18 -18 34 -21 111 -21 l90 0 0 -253 c0 -183 3 -256 12 -265 9 -9 78 -12 249 -12 203 0 240 2 253 16 14 13 16 51 16 265 l0 249 89 0 c96 0 121 11 121 53 0 28 -436 684 -458 689 -10 2 -25 2 -35 0z m183 -392 l160 -240 -65 0 c-108 0 -105 8 -105 -290 l0 -251 -157 3 -158 3 -3 249 c-3 293 0 284 -98 288 l-64 3 158 237 c86 131 160 238 164 238 4 0 80 -108 168 -240z" style="fill: rgb(30, 58, 138);"/>
    <path d="M1135 3020 c-23 -26 -13 -68 21 -80 14 -6 121 -10 237 -10 176 0 216 3 235 16 28 20 30 69 3 84 -12 6 -110 10 -249 10 -215 0 -230 -1 -247 -20z" style="fill: rgb(30, 58, 138);"/>
    <path d="M2306 3017 c-20 -29 -10 -66 21 -78 36 -13 436 -12 467 2 31 14 40 47 20 76 -14 23 -16 23 -254 23 -238 0 -240 0 -254 -23z" style="fill: rgb(30, 58, 138);"/>
    <path d="M3488 3029 c-26 -15 -23 -64 4 -83 19 -13 59 -16 235 -16 116 0 223 4 237 10 34 12 44 54 21 80 -17 19 -32 20 -249 20 -138 0 -238 -5 -248 -11z" style="fill: rgb(30, 58, 138);"/>
    <path d="M390 2810 c-20 -20 -20 -29 -18 -1215 2 -964 6 -1197 16 -1207 17 -17 4281 -25 4324 -7 14 6 29 20 32 32 3 12 6 552 6 1199 0 1165 0 1178 -20 1198 -20 20 -33 20 -2170 20 -2141 0 -2150 0 -2170 -20z m4250 -1210 l0 -1120 -2080 0 -2080 0 0 1120 0 1120 2080 0 2080 0 0 -1120z" style="fill: rgb(30, 58, 138);"/>
    <path d="M662 2590 c-47 -29 -72 -76 -72 -135 0 -148 168 -213 272 -105 50 53 58 104 26 168 -12 26 -38 57 -57 69 -44 30 -123 31 -169 3z" style="fill: rgb(30, 58, 138);"/>
    <path d="M1029 2594 c-7 -9 -16 -43 -20 -76 -20 -168 -161 -309 -326 -325 -101 -10 -93 42 -93 -594 l0 -559 22 -14 c13 -7 49 -16 80 -19 154 -15 300 -161 315 -316 3 -31 12 -66 19 -78 l14 -23 1520 0 1520 0 14 23 c7 12 16 47 19 78 15 156 160 301 317 316 30 3 65 12 78 19 l22 14 0 559 c0 636 8 584 -93 594 -165 16 -306 157 -326 325 -4 33 -13 67 -20 76 -12 14 -158 16 -1531 16 -1373 0 -1519 -2 -1531 -16z m1057 -97 c-182 -114 -279 -203 -369 -339 -63 -96 -109 -196 -139 -306 -18 -64 -22 -105 -22 -247 0 -202 16 -281 94 -440 82 -170 216 -320 374 -420 l78 -50 -487 -3 c-269 -1 -490 -1 -492 1 -2 2 -10 30 -18 62 -49 185 -189 315 -388 359 l-27 6 2 482 3 482 44 8 c73 12 167 63 232 124 63 61 123 165 134 232 4 20 8 43 10 50 4 9 111 12 497 11 386 0 489 -3 474 -12z m674 -13 c340 -77 603 -342 686 -692 22 -88 22 -283 1 -378 -73 -336 -333 -605 -666 -691 -135 -34 -307 -34 -442 0 -261 68 -475 242 -595 487 -203 414 -50 927 350 1168 100 61 231 105 371 126 56 8 221 -3 295 -20z m1252 -23 c28 -161 179 -320 347 -362 l66 -17 3 -480 2 -481 -37 -7 c-177 -32 -331 -178 -376 -355 l-14 -54 -489 -3 -488 -2 90 59 c210 139 354 341 426 596 30 110 35 324 10 446 -55 266 -216 502 -444 649 l-93 60 495 -2 494 -3 8 -44z" style="fill: rgb(30, 58, 138);"/>
    <path d="M822 1854 c-27 -18 -29 -55 -4 -77 16 -15 52 -17 304 -17 263 0 286 1 301 18 23 26 21 58 -5 76 -19 14 -65 16 -298 16 -233 0 -279 -2 -298 -16z" style="fill: rgb(30, 58, 138);"/>
    <path d="M815 1420 c-23 -26 -13 -68 21 -80 14 -6 142 -10 284 -10 142 0 270 4 284 10 34 12 44 54 21 80 -17 19 -33 20 -305 20 -272 0 -288 -1 -305 -20z" style="fill: rgb(30, 58, 138);"/>
    <path d="M2528 2389 c-13 -7 -18 -23 -18 -54 0 -44 -1 -44 -42 -56 -104 -27 -191 -99 -245 -201 -25 -48 -28 -63 -28 -153 0 -93 2 -105 33 -167 49 -99 145 -176 247 -198 l30 -6 3 -268 2 -267 -22 7 c-106 32 -177 117 -193 229 -9 61 -19 75 -55 75 -41 0 -53 -21 -48 -89 10 -147 137 -290 283 -321 27 -5 31 -10 36 -54 5 -47 19 -66 49 -66 30 0 44 19 49 66 6 46 7 47 52 58 101 26 190 102 238 205 23 49 26 69 26 156 0 90 -3 105 -28 153 -54 102 -141 174 -244 201 l-43 12 0 264 c0 176 3 265 10 265 25 0 81 -31 118 -65 48 -43 78 -101 88 -170 8 -61 18 -75 54 -75 42 0 53 21 48 93 -12 144 -127 277 -275 316 -42 12 -43 12 -43 56 0 34 -5 47 -19 55 -24 12 -41 12 -63 -1z m-18 -470 l0 -260 -22 7 c-118 36 -192 134 -191 254 0 77 17 123 67 178 35 38 106 82 134 82 9 0 12 -59 12 -261z m195 -417 c189 -131 147 -408 -72 -476 l-23 -7 0 261 0 262 28 -6 c15 -4 45 -19 67 -34z" style="fill: rgb(30, 58, 138);"/>
    <path d="M3702 1854 c-27 -18 -29 -55 -4 -77 16 -15 52 -17 304 -17 263 0 286 1 301 18 23 26 21 58 -5 76 -19 14 -65 16 -298 16 -233 0 -279 -2 -298 -16z" style="fill: rgb(30, 58, 138);"/>
    <path d="M3695 1420 c-23 -26 -13 -68 21 -80 14 -6 142 -10 284 -10 142 0 270 4 284 10 34 12 44 54 21 80 -17 19 -33 20 -305 20 -272 0 -288 -1 -305 -20z" style="fill: rgb(30, 58, 138);"/>
    <path d="M4289 2587 c-49 -32 -83 -105 -74 -159 14 -82 109 -146 190 -128 106 24 157 134 106 230 -41 79 -148 106 -222 57z" style="fill: rgb(30, 58, 138);"/>
    <path d="M696 900 c-61 -19 -106 -83 -106 -150 0 -61 26 -107 77 -137 36 -21 53 -25 94 -21 160 16 198 227 53 298 -43 21 -71 24 -118 10z" style="fill: rgb(30, 58, 138);"/>
    <path d="M4303 890 c-106 -54 -118 -201 -21 -273 17 -13 47 -22 80 -24 97 -7 168 60 168 158 0 116 -124 191 -227 139z" style="fill: rgb(30, 58, 138);"/>
  </g>
</svg>