<?xml version="1.0" encoding="utf-8"?>
<svg version="1.0" xmlns="http://www.w3.org/2000/svg" width="512.000000pt" height="512.000000pt" preserveAspectRatio="xMidYMid meet">
  <g transform="translate(0.000000,512.000000) scale(0.100000,-0.100000)" fill="#000000" stroke="none">
    <path d="M2480 4961 l0 -159 -67 -6 c-354 -32 -616 -103 -908 -246 -469 -231 -848 -607 -1085 -1080 -110 -221 -179 -431 -227 -695 -26 -143 -26 -605 0 -750 64 -357 185 -665 372 -945 335 -504 832 -858 1409 -1005 215 -54 341 -69 591 -69 248 0 372 14 590 69 831 209 1505 872 1724 1697 52 193 81 387 81 540 l0 88 -80 0 -80 0 0 -48 c0 -181 -50 -454 -121 -667 -225 -668 -747 -1185 -1418 -1405 -246 -81 -430 -110 -696 -110 -267 0 -450 29 -699 111 -498 163 -922 497 -1197 940 -161 259 -267 549 -316 861 -24 156 -24 480 0 636 153 981 889 1727 1862 1888 55 9 174 19 265 23 l165 6 3 87 3 88 249 -167 c138 -91 250 -169 250 -173 0 -4 -112 -82 -250 -173 l-250 -167 0 85 0 85 -109 0 c-325 0 -683 -103 -964 -277 -372 -229 -656 -576 -800 -978 -80 -221 -109 -395 -109 -645 0 -250 29 -424 109 -645 145 -402 428 -749 800 -979 202 -125 457 -218 703 -257 112 -18 458 -18 570 0 553 88 1038 409 1330 880 171 275 262 568 285 908 l6 93 -86 0 -85 0 0 -58 c0 -264 -102 -599 -261 -859 -166 -271 -448 -521 -736 -654 -249 -114 -462 -161 -738 -161 -391 0 -724 110 -1038 343 -800 594 -932 1744 -288 2508 293 346 706 563 1158 609 l83 8 2 -158 3 -158 480 320 c264 176 481 323 482 327 1 5 -216 153 -482 331 l-485 322 0 -159z" style="fill: rgb(30, 58, 138);"/>
    <path d="M3785 4378 c-22 -34 -41 -64 -43 -68 -1 -4 28 -27 66 -52 l68 -45 42 63 c23 35 42 67 42 71 0 7 -108 82 -129 90 -3 2 -24 -25 -46 -59z" style="fill: rgb(30, 58, 138);"/>
    <path d="M4140 4095 l-54 -55 59 -60 59 -60 58 57 58 57 -57 58 c-32 32 -60 58 -63 58 -3 0 -30 -25 -60 -55z" style="fill: rgb(30, 58, 138);"/>
    <path d="M3407 4025 c-20 -35 -37 -69 -37 -74 0 -13 129 -85 137 -77 3 3 23 34 43 68 43 71 47 62 -50 116 l-56 32 -37 -65z" style="fill: rgb(30, 58, 138);"/>
    <path d="M3790 3745 l-54 -55 59 -60 59 -60 58 57 58 57 -57 58 c-32 32 -60 58 -63 58 -3 0 -30 -25 -60 -55z" style="fill: rgb(30, 58, 138);"/>
    <path d="M4455 3764 c-27 -19 -56 -39 -64 -43 -12 -7 -6 -22 28 -75 24 -36 48 -66 53 -66 12 0 128 79 128 87 0 11 -82 133 -89 132 -3 0 -28 -16 -56 -35z" style="fill: rgb(30, 58, 138);"/>
    <path d="M1835 3626 c-37 -17 -70 -52 -84 -89 -6 -16 -11 -83 -11 -149 0 -104 3 -125 21 -158 22 -39 82 -80 116 -80 19 0 20 -9 26 -147 6 -160 21 -231 66 -330 58 -123 151 -223 277 -297 93 -54 93 -88 1 -142 -127 -74 -220 -173 -278 -297 -44 -95 -60 -170 -66 -313 l-6 -132 -37 -11 c-97 -29 -120 -75 -120 -241 0 -141 15 -183 77 -221 l38 -24 710 0 710 0 35 22 c20 12 46 40 59 63 21 38 22 50 19 174 -3 127 -4 134 -31 169 -18 24 -44 42 -76 54 l-48 17 -6 130 c-4 72 -13 158 -22 191 -47 179 -157 322 -321 419 -93 54 -93 88 -1 142 165 97 275 239 322 419 9 34 19 125 22 208 6 137 7 147 26 147 35 0 94 41 117 81 20 36 21 51 18 174 -3 145 -9 163 -72 209 -27 21 -38 21 -739 23 -578 2 -718 0 -742 -11z m1393 -233 l3 -83 -666 0 -665 0 0 78 c0 43 3 82 7 85 3 4 302 6 662 5 l656 -3 3 -82z m-168 -376 c0 -78 -6 -144 -15 -182 -34 -130 -120 -242 -243 -315 -84 -50 -117 -83 -137 -139 -19 -55 -19 -97 0 -152 20 -56 53 -89 137 -139 123 -73 209 -185 243 -315 9 -36 15 -103 15 -172 l0 -113 -495 0 -495 0 0 113 c0 231 67 361 249 481 112 74 125 87 146 145 19 55 19 97 0 152 -20 57 -53 89 -138 140 -123 73 -207 183 -242 314 -9 38 -15 104 -15 182 l0 123 495 0 495 0 0 -123z m170 -1777 l0 -80 -665 0 -665 0 0 80 0 80 665 0 665 0 0 -80z" style="fill: rgb(30, 58, 138);"/>
    <path d="M4107 3386 c-32 -18 -62 -37 -67 -42 -10 -10 67 -147 78 -142 35 16 132 74 132 79 0 10 -74 139 -80 139 -3 -1 -31 -16 -63 -34z" style="fill: rgb(30, 58, 138);"/>
    <path d="M4675 3364 c-33 -13 -63 -28 -68 -33 -7 -7 36 -123 53 -143 3 -5 37 5 75 22 55 23 70 33 68 49 -3 28 -50 131 -60 131 -4 -1 -35 -12 -68 -26z" style="fill: rgb(30, 58, 138);"/>
    <path d="M4330 2960 c-14 -5 -44 -14 -67 -20 l-41 -10 20 -78 c12 -42 22 -78 22 -79 3 -4 148 35 153 41 4 3 -3 38 -14 78 -20 76 -28 84 -73 68z" style="fill: rgb(30, 58, 138);"/>
    <path d="M4815 2933 c-38 -8 -71 -16 -73 -17 -3 -4 27 -149 33 -154 8 -9 147 22 152 34 7 18 -21 147 -32 150 -6 1 -41 -5 -80 -13z" style="fill: rgb(30, 58, 138);"/>
  </g>
</svg>