<?xml version="1.0" encoding="utf-8"?>
<svg version="1.0" xmlns="http://www.w3.org/2000/svg" width="512.000000pt" height="512.000000pt" preserveAspectRatio="xMidYMid meet">
  <g transform="translate(0.000000,512.000000) scale(0.100000,-0.100000)" fill="#000000" stroke="none">
    <path d="M3756 4884 c-24 -23 -20 -71 7 -88 12 -8 89 -28 171 -45 83 -17 151 -33 153 -35 2 -1 -347 -215 -774 -476 -710 -433 -778 -472 -797 -460 -12 7 -158 115 -326 240 -374 278 -356 266 -385 254 -12 -5 -268 -182 -569 -393 -404 -283 -548 -390 -552 -407 -4 -15 0 -34 11 -50 13 -21 23 -25 48 -22 22 3 197 120 555 372 l524 367 51 -39 c389 -292 638 -472 652 -472 23 0 -14 -22 838 497 428 261 784 476 792 480 10 3 14 0 11 -8 -19 -56 -67 -315 -62 -334 7 -28 42 -41 81 -31 29 7 28 4 91 301 l48 226 -21 20 c-16 16 -75 33 -249 70 -252 54 -275 56 -298 33z" style="fill: rgb(30, 58, 138);"/>
    <path d="M3587 3782 c-16 -17 -17 -87 -17 -800 l0 -782 -62 -29 c-35 -16 -87 -43 -115 -60 l-53 -31 0 478 c0 451 -1 480 -18 495 -17 15 -56 17 -354 17 -312 0 -336 -1 -351 -18 -16 -17 -17 -98 -17 -960 l0 -942 -115 0 -115 0 0 1090 c0 1077 0 1090 -20 1110 -19 19 -33 20 -354 20 l-335 0 -20 -26 c-21 -27 -21 -29 -21 -1110 l0 -1084 -110 0 -110 0 0 795 c0 782 0 795 -20 815 -19 19 -33 20 -355 20 -322 0 -336 -1 -355 -20 -20 -20 -20 -33 -20 -815 l0 -795 -220 0 -221 0 -24 -25 c-30 -29 -31 -45 -6 -76 l19 -24 1367 -5 1366 -5 29 -87 c96 -285 276 -488 544 -613 158 -74 234 -90 431 -89 187 0 249 12 400 75 154 64 331 205 431 345 56 78 127 227 153 322 128 463 -88 959 -511 1178 l-88 45 -2 790 c-3 769 -4 791 -22 805 -16 11 -82 14 -356 14 -314 0 -338 -1 -353 -18z m603 -825 l0 -724 -72 14 c-73 14 -319 12 -395 -3 l-33 -6 0 721 0 721 250 0 250 0 0 -723z m-1942 -759 l2 -1048 -250 0 -250 0 0 1050 0 1050 248 -2 247 -3 3 -1047z m972 266 l0 -486 -46 -52 c-168 -186 -264 -437 -264 -687 l0 -89 -95 0 -95 0 0 900 0 900 250 0 250 0 0 -486z m-1950 -559 l0 -755 -250 0 -250 0 0 748 c0 412 3 752 7 755 3 4 116 7 250 7 l243 0 0 -755z m2810 224 c92 -14 217 -59 307 -110 93 -53 261 -215 311 -301 102 -173 137 -313 130 -517 -5 -117 -10 -149 -36 -231 -85 -258 -288 -475 -531 -569 -279 -108 -606 -68 -845 103 -430 307 -509 900 -176 1310 198 244 524 366 840 315z" style="fill: rgb(30, 58, 138);"/>
    <path d="M3895 1865 c-20 -19 -25 -34 -25 -73 l0 -48 -52 -17 c-66 -20 -120 -64 -156 -125 -24 -42 -27 -56 -27 -142 0 -86 3 -100 28 -143 38 -64 103 -100 243 -132 164 -39 208 -73 208 -164 -1 -56 -23 -102 -66 -133 -28 -20 -45 -23 -115 -23 -67 0 -87 4 -109 21 -43 31 -63 64 -73 117 -10 55 -16 63 -53 72 -20 5 -32 1 -48 -15 -19 -19 -22 -31 -18 -75 9 -107 80 -193 188 -232 l50 -18 0 -48 c0 -79 54 -117 107 -75 7 5 13 34 15 64 l3 55 56 23 c78 31 121 67 155 128 25 47 29 63 29 138 0 165 -56 221 -276 278 -67 18 -133 39 -146 47 -43 29 -65 75 -60 128 10 113 122 178 244 142 74 -22 107 -67 125 -170 2 -11 16 -26 32 -34 25 -12 31 -11 55 7 23 18 26 26 24 76 -2 67 -41 146 -90 183 -18 14 -59 36 -90 48 l-58 24 -3 55 c-2 44 -8 59 -25 71 -30 21 -44 19 -72 -10z" style="fill: rgb(30, 58, 138);"/>
  </g>
</svg>