<?xml version="1.0" encoding="utf-8"?>
<svg version="1.0" xmlns="http://www.w3.org/2000/svg" width="512.000000pt" height="512.000000pt" preserveAspectRatio="xMidYMid meet">
  <g transform="translate(0.000000,512.000000) scale(0.100000,-0.100000)" fill="#000000" stroke="none">
    <path d="M2071 4769 c-51 -21 -50 -12 -51 -510 0 -451 1 -466 20 -487 11 -11 35 -24 52 -27 18 -3 230 -5 471 -3 l439 3 24 28 24 28 0 459 0 459 -24 28 -24 28 -454 2 c-279 1 -462 -2 -477 -8z m814 -509 l0 -355 -352 -3 -353 -2 0 360 0 360 353 -2 352 -3 0 -355z" style="fill: rgb(30, 58, 138);"/>
    <path d="M1295 4631 c-37 -15 -49 -42 -46 -94 0 -10 28 -47 61 -81 l60 -63 -187 -5 c-161 -5 -196 -9 -246 -28 -75 -28 -164 -110 -202 -187 l-30 -58 -3 -345 c-2 -189 0 -355 3 -367 5 -23 51 -53 79 -53 8 0 28 11 43 24 l28 24 5 344 5 345 27 41 c15 22 49 53 75 69 46 27 51 27 232 31 l186 4 -67 -70 c-65 -67 -73 -82 -68 -127 5 -48 62 -75 108 -51 15 8 88 76 162 150 179 181 180 161 -10 351 -144 143 -174 163 -215 146z" style="fill: rgb(30, 58, 138);"/>
    <path d="M3473 4383 c-28 -6 -63 -49 -63 -78 0 -12 9 -34 20 -48 l20 -25 328 -4 327 -3 48 -28 c26 -15 60 -47 75 -69 l27 -41 3 -256 3 -256 -63 62 c-68 66 -102 82 -140 62 -33 -18 -47 -40 -48 -74 0 -25 23 -52 148 -177 132 -132 151 -148 182 -148 30 0 49 16 182 147 132 131 148 151 148 181 0 22 -8 41 -25 57 -40 41 -69 33 -144 -40 -37 -36 -70 -65 -74 -65 -3 0 -7 120 -9 268 l-3 267 -32 61 c-41 78 -125 155 -201 185 -54 22 -72 23 -372 25 -173 1 -325 0 -337 -3z" style="fill: rgb(30, 58, 138);"/>
    <path d="M2463 3465 c-79 -21 -131 -51 -193 -111 -159 -151 -173 -399 -33 -571 24 -30 43 -56 41 -57 -2 -2 -26 -15 -54 -30 -206 -110 -354 -352 -354 -577 0 -119 -65 -109 695 -109 l652 0 21 23 c46 48 22 219 -50 367 -34 69 -59 102 -133 175 -52 52 -113 102 -145 119 -30 16 -57 30 -59 32 -2 2 10 19 27 38 114 130 143 312 73 462 -88 188 -296 290 -488 239z m228 -181 c193 -105 180 -382 -21 -473 -166 -75 -369 54 -370 235 -1 207 211 335 391 238z m19 -681 c142 -39 270 -144 334 -274 19 -41 40 -93 45 -116 l9 -43 -534 0 -534 0 6 28 c26 109 94 224 170 290 27 24 85 61 129 82 120 60 240 70 375 33z" style="fill: rgb(30, 58, 138);"/>
    <path d="M413 2847 c-287 -286 -333 -336 -333 -362 0 -25 46 -76 332 -362 310 -310 335 -333 367 -333 33 0 58 23 362 327 180 179 330 337 334 350 3 13 -1 36 -9 51 -8 15 -158 170 -333 345 -295 293 -321 317 -353 317 -32 0 -59 -24 -367 -333z m615 -614 l-253 -253 -247 247 c-137 137 -248 252 -248 258 0 5 111 121 247 257 l248 248 252 -252 253 -253 -252 -252z" style="fill: rgb(30, 58, 138);"/>
    <path d="M4165 3150 c-123 -33 -210 -85 -311 -185 -75 -74 -99 -105 -133 -175 -56 -115 -74 -194 -74 -315 0 -121 18 -200 75 -315 33 -68 58 -102 127 -171 141 -140 267 -197 457 -206 130 -7 223 10 324 58 183 86 314 234 377 424 23 70 27 96 27 210 0 114 -4 140 -27 210 -77 231 -262 406 -493 465 -101 26 -252 26 -349 0z m308 -155 c207 -54 366 -229 399 -439 50 -322 -203 -616 -530 -616 -297 0 -535 238 -535 535 0 239 159 450 388 516 75 22 203 24 278 4z" style="fill: rgb(30, 58, 138);"/>
    <path d="M2488 1727 c-14 -11 -673 -1140 -732 -1254 -22 -44 -20 -67 8 -100 l24 -28 746 0 745 0 23 22 c14 15 22 34 22 55 -1 25 -93 193 -359 653 -196 341 -368 630 -382 643 -27 24 -69 28 -95 9z m331 -720 c154 -269 281 -493 281 -498 0 -5 -224 -9 -571 -9 -318 0 -569 4 -567 9 7 19 571 992 573 989 1 -2 129 -223 284 -491z" style="fill: rgb(30, 58, 138);"/>
    <path d="M745 1590 c-11 -4 -82 -71 -157 -147 -124 -126 -138 -143 -138 -175 0 -45 34 -78 79 -78 27 0 45 12 101 66 l68 66 4 -159 c3 -152 4 -160 33 -216 38 -77 126 -158 202 -188 54 -21 77 -23 343 -27 319 -5 348 0 367 55 14 39 -7 90 -39 97 -13 3 -151 7 -308 8 l-285 3 -48 28 c-26 15 -60 47 -75 69 -26 40 -27 48 -30 187 l-3 146 68 -67 c79 -78 114 -88 158 -43 49 48 39 65 -128 232 -152 152 -167 162 -212 143z" style="fill: rgb(30, 58, 138);"/>
    <path d="M4294 1577 l-29 -25 -5 -259 -5 -260 -27 -41 c-15 -22 -49 -53 -75 -69 -48 -28 -49 -28 -255 -32 -115 -2 -208 0 -208 5 0 4 29 38 65 75 50 51 65 74 65 96 -1 49 -49 89 -93 77 -14 -3 -90 -72 -171 -153 -119 -121 -146 -153 -146 -176 0 -23 27 -55 146 -176 81 -81 157 -150 171 -153 44 -12 92 28 93 77 0 22 -16 45 -65 97 l-66 67 218 5 c194 5 224 8 276 27 80 31 166 112 203 193 l29 63 3 266 c3 244 2 267 -15 287 -29 35 -74 39 -109 9z" style="fill: rgb(30, 58, 138);"/>
  </g>
</svg>