<?xml version="1.0" encoding="utf-8"?>
<svg version="1.1" id="Layer_1" xmlns="http://www.w3.org/2000/svg" x="0px" y="0px" width="100%" viewBox="0 0 296 243" enable-background="new 0 0 296 243" xmlns:bx="https://boxy-svg.com">
  <defs>
    <bx:guide x="365.8244993577172" y="166.35163943527826" angle="0"/>
  </defs>
  <path opacity="1.000000" stroke="none" d=" M191.441025,81.275566 C192.055405,80.441254 193.124161,79.097832 194.201721,79.090714 C212.939407,78.966843 231.678223,78.990807 250.416458,79.066704 C251.220993,79.069969 252.022247,79.882912 252.891815,80.726662 C232.605560,81.219215 212.252533,81.303787 191.441025,81.275566 z" style="fill: rgb(0, 180, 216);"/>
  <path opacity="1.000000" stroke="none" d="M 381.942 -24.43 C 364.845 -47.421 347.942 -70.059 331.167 -92.539 C 321.794 -89.739 316.459 -85.609 322.422 -77.889 C 332.347 -65.039 345.467 -45.342 355.131 -32.353 C 371.71 -10.071 388.459 12.126 404.79 34.533 C 409.36 40.801 414.883 43.616 423.243 43.274 C 438.135 42.665 453.088 42.551 468.01 42.178 C 470.328 42.12 472.618 41.789 474.942 41.583 C 472.374 31.106 467.479 27.5 455.837 27.346 C 447.859 27.242 439.845 26.999 431.929 27.409 C 424 27.82 418.675 25.097 414.408 19.229 C 403.837 4.699 392.915 -9.656 381.942 -24.43 Z" style="transform-origin: 376.19px 75.011px; fill: none; stroke-width: 0px;" transform="matrix(-1, 0, 0, -1, -0.000049, -0.000006)"/>
  <g transform="matrix(1, 0, 0, 1, -195.656, 54.7344)">
    <path opacity="1.000000" stroke="none" d="M 389.145 25.77 C 407.882 25.646 426.621 25.67 445.359 25.746 C 446.164 25.749 446.965 26.562 448.154 27.539 C 457.979 27.723 460.802 25.05 463.017 13.927 C 461.035 13.81 459.119 13.6 457.204 13.599 C 431.22 13.581 405.235 13.72 379.253 13.498 C 373.463 13.449 370.044 15.812 367.276 20.605 C 358.212 36.297 349.115 51.971 340.008 67.64 C 343.116 71.578 347.429 76.982 349.673 80.526 C 358.095 66.005 366.511 51.482 374.925 36.957 C 377.484 32.539 380.299 28.516 385.926 27.842 C 386.998 27.12 388.067 25.777 389.145 25.77 Z" style="fill: rgb(30, 58, 138);"/>
  </g>
  <path opacity="1.000000" stroke="none" d="M 200.47 120.593 C 203.686 114.883 207.97 112.233 214.618 112.633 C 221.254 113.033 227.934 112.796 234.592 112.694 C 244.305 112.545 248.18 109.036 249.7 98.84 C 247.747 98.64 245.815 98.318 243.875 98.261 C 231.389 97.898 218.892 97.786 206.418 97.194 C 199.414 96.862 194.969 99.601 191.526 105.701 C 182.948 120.901 174.194 136.002 165.436 151.101 C 168.585 155.175 172.513 160.806 175.016 164.705 C 175.329 164.164 175.641 163.622 175.954 163.08 C 184.24 148.702 192.507 134.733 200.47 120.593 Z" style="fill: rgb(255, 215, 0);"/>
  <path opacity="1.000000" stroke="none" d=" M45.052246,48.968277 C42.070034,48.872505 39.579067,48.725651 37.086792,48.698521 C28.195799,48.601746 25.398050,43.980629 23.358416,34.019428 C25.241741,34.019428 26.990538,34.019592 28.739334,34.019402 C61.004482,34.015900 93.269821,33.965828 125.534424,34.095726 C128.161240,34.106300 130.783096,35.346684 133.407257,36.015617 C132.374329,38.723701 131.720795,41.665073 130.229065,44.091045 C127.173241,49.060719 121.847374,48.924320 116.891327,48.941200 C93.108749,49.022224 69.325745,48.974262 45.052246,48.968277 z" style="fill: rgb(30, 58, 138);"/>
  <path opacity="1.000000" stroke="none" d=" M92.462265,67.753220 C100.163971,67.718864 107.405106,67.718864 114.654816,67.718864 C114.238106,76.819321 109.515053,81.518585 101.355324,81.534981 C86.066086,81.565712 70.776711,81.572693 55.487473,81.545311 C47.408947,81.530846 42.901890,76.823929 42.872974,67.787582 C59.245399,67.787582 75.623550,67.787582 92.462265,67.753220 z" style="fill: rgb(0, 135, 209);"/>
  <path opacity="1.000000" stroke="none" d="M 147.092 145.563 C 144.141 141.97 140.357 136.843 137.445 132.618 C 129.442 146.38 121.437 160.142 113.445 173.911 C 107.414 184.301 107.722 187.19 116.04 197.527 C 118.182 194.375 120.385 191.518 122.184 188.427 C 130.495 174.144 138.797 159.855 147.092 145.563 Z" style="fill: rgb(0, 135, 209);"/>
  <path opacity="1.000000" stroke="none" d="M 190.266 82.802 C 190.89 81.767 191.975 80.104 193.07 80.095 C 212.097 79.941 231.126 79.971 250.155 80.065 C 250.972 80.069 251.785 81.075 252.669 82.122 C 232.068 82.731 211.4 82.836 190.266 82.802 Z" style="fill: rgb(30, 58, 138);"/>
  <path opacity="1.000000" stroke="none" d="M 125.923 88.61 C 128.433 91.714 132.252 97.05 135.536 102.07 C 144.377 86.814 153.188 71.542 161.936 56.234 C 165.268 50.402 169.566 48.134 176.034 48.177 C 203.363 48.359 230.695 48.353 258.025 48.338 C 263.517 48.336 269.026 48.209 274.496 47.764 C 282.938 47.076 287.387 42.136 287.765 32.992 C 285.788 32.992 283.821 32.988 281.854 32.993 C 244.024 33.092 206.193 33.399 168.366 33.123 C 160.586 33.066 156.246 35.927 152.542 42.469 C 143.809 57.895 134.903 73.224 125.923 88.61 Z" style="fill: rgb(0, 135, 209);"/>
  <path opacity="1.000000" stroke="none" d="M 93.468 145.073 C 89.238 153.223 90.888 158.252 98.988 164.024 C 100.768 161.258 102.658 158.575 104.308 155.746 C 111.978 142.541 119.658 129.343 127.328 116.138 C 124.118 112.372 120.228 106.422 117.688 102.629 C 114.908 107.392 112.118 112.166 109.328 116.954 C 103.878 126.517 98.358 135.634 93.468 145.073 Z M 287.194 32.904 C 287.37 33.207 287.543 33.511 287.713 33.815 C 287.735 33.516 287.752 33.213 287.765 32.904 C 287.575 32.904 287.384 32.904 287.194 32.904 Z" style="fill: rgb(30, 58, 138);"/>
  <path opacity="1.000000" stroke="none" d="M 153.321 171.288 C 154.328 169.544 155.337 167.799 156.346 166.055 C 159.671 170.829 163.926 176.487 166.209 179.219 C 157.271 194.682 148.394 210.001 139.566 225.234 C 139.34 225.684 139.093 226.11 138.825 226.512 C 138.759 226.625 138.694 226.738 138.628 226.852 C 137.269 225.724 134.469 224.162 133.812 223.515 C 133.506 223.213 133.815 223.225 133.433 222.883 C 132.699 222.226 130.038 220.242 127.201 218.429 C 127.399 218.256 127.652 217.952 127.854 217.635 C 128.09 217.265 128.316 216.781 128.501 216.313 C 128.608 216.042 128.707 215.76 128.793 215.471 C 136.307 202.962 146.049 183.884 153.321 171.288 Z" style="fill: rgb(30, 58, 138);"/>
  <path opacity="1.000000" stroke="none" d="M 127.657 232.548 C 112.368 232.578 97.079 232.585 81.789 232.558 C 73.711 232.543 69.204 227.837 69.175 218.8 C 85.547 218.8 101.926 218.8 118.764 218.766 C 121.656 218.753 124.484 218.745 127.271 218.74 C 127.466 218.251 127.705 217.744 127.99 217.221 C 128.429 217.737 128.907 218.232 129.4 218.667 C 131.24 220.292 133.851 221.819 136.606 222.839 C 136.949 222.966 137.299 223.087 137.653 223.202 C 137.754 223.265 137.854 223.327 137.955 223.389 C 138.654 223.818 139.392 224.217 140.157 224.575 C 139.844 225.115 139.531 225.655 139.218 226.195 C 138.992 226.645 138.745 227.071 138.477 227.473 C 138.313 227.757 138.148 228.041 137.984 228.325 C 137.076 228.998 136.174 229.731 135.407 230.463 C 135.343 230.524 135.28 230.585 135.217 230.646 C 133.19 231.903 130.656 232.541 127.657 232.548 Z" style="fill: rgb(0, 135, 209);"/>
</svg>